<svg id="Layer_1" data-name="Layer 1" xmlns="http://www.w3.org/2000/svg" viewBox="0 0 441.74 39.88"><defs><style>.cls-1{fill:#3d7cbf;}.cls-2{fill:#144a8e;}</style></defs><title>FInalLogo</title><path class="cls-1" d="M428.93,77.23v12.1h-2.7v-35h15.35c15.2,0,15.2,22.9,0,22.9H428.93Zm0-20.4v18h12.65c11.65,0,11.65-18,0-18H428.93Z" transform="translate(-180.14 -50.48)"/><path class="cls-1" d="M460.93,54.33v35h-2.45v-35h2.45Z" transform="translate(-180.14 -50.48)"/><path class="cls-1" d="M491.53,64.63v24.7h-2.45V84.08A11.55,11.55,0,0,1,479,89.73,12.36,12.36,0,0,1,466.43,77,12.27,12.27,0,0,1,479,64.33a11.21,11.21,0,0,1,10.1,5.7v-5.4h2.45ZM468.88,77A9.92,9.92,0,0,0,479,87.33c13.75,0,13.75-20.65,0-20.65A9.88,9.88,0,0,0,468.88,77Z" transform="translate(-180.14 -50.48)"/><path class="cls-1" d="M502.78,57.18v7.45h8.4v2h-8.4V81.73c0,3.35.7,5.7,4.55,5.7a9.16,9.16,0,0,0,3.8-1l0.85,2a10.79,10.79,0,0,1-4.65,1.25c-5.25,0-7-3.1-7-8V66.68h-5.25v-2h5.25v-7.2Z" transform="translate(-180.14 -50.48)"/><path class="cls-1" d="M519.38,89.33V67h-5.05V64.83h5.05v-2.2c0-4.9,1.95-8.45,7.4-8.45a8.09,8.09,0,0,1,4.9,1.7l-1.2,1.8a6.77,6.77,0,0,0-3.8-1.25c-3.1,0-4.9,1.9-4.9,6.2v2.2h8.15V67h-8.15V89.33h-2.4Z" transform="translate(-180.14 -50.48)"/><path class="cls-1" d="M532.48,77c0-7.85,5.6-12.85,12.55-12.85s12.55,5,12.55,12.85S552,89.68,545,89.68,532.48,84.88,532.48,77Zm22.7,0c0-6.4-4.55-10.55-10.15-10.55S534.88,70.63,534.88,77,539.43,87.28,545,87.28,555.18,83.43,555.18,77Z" transform="translate(-180.14 -50.48)"/><path class="cls-1" d="M565.53,64.63l0.1,4.4c1.55-3.35,5-4.65,8.2-4.65a9.63,9.63,0,0,1,5.3,1.45l-1.1,2a7.94,7.94,0,0,0-4.2-1.15,8.2,8.2,0,0,0-8.15,8.25v14.4h-2.45V64.63h2.3Z" transform="translate(-180.14 -50.48)"/><path class="cls-1" d="M619.43,89.33V74.53c0-4.75-3.2-8.1-7.9-8.1s-8,3.5-8,8.25V89.33h-2.45V74.68c0-4.75-3.25-8.2-8-8.2s-7.9,3.45-7.9,8.2V89.33h-2.45V64.63h2.3l0,4.1a8.7,8.7,0,0,1,8-4.6c3.75,0,7.7,1.7,9.15,6.1a9.54,9.54,0,0,1,9.15-6.1c6,0,10.35,4.25,10.35,10.4v14.8h-2.45Z" transform="translate(-180.14 -50.48)"/><path class="cls-2" d="M255.79,51.18h3.69c2.89,0,5.77,0,8.66,0a1.49,1.49,0,0,1,1.51.86Q275.44,62,281.3,71.85c0.16,0.28-.63.72-0.31,1.13,0-3.83,0-7,0-11-0.17-3.55,0-7.11,0-10.74h13.32V89.63c-0.29,0-.56.07-0.83,0.07-3.89,0-7.79,0-11.68,0a1.29,1.29,0,0,1-1.25-.75q-5.67-9.37-11.38-18.72a5.31,5.31,0,0,0-.48-0.63c-0.22.11,0.55-.14,0.32,0a13.58,13.58,0,0,1,.05,2.79c0,1.66-.06,3.66,0,5.36,0.06,3.64,0,7.28,0,10.93,0,0.78-.18,1.07-1,1.06-3.78,0-7.57,0-11.35,0-0.71,0-1-.16-1-0.93q0-18.37,0-36.73C255.74,51.81,255.77,51.56,255.79,51.18Z" transform="translate(-180.14 -50.48)"/><path class="cls-2" d="M317.61,90.35c-6.74-.1-12.08-1.65-16.45-5.77a18,18,0,0,1-5.56-11.45,19.93,19.93,0,0,1,2-11.88,19.42,19.42,0,0,1,13.57-10.06,23,23,0,0,1,18,2.84,18.27,18.27,0,0,1,8.74,14.19A19.27,19.27,0,0,1,334,82.74a19.59,19.59,0,0,1-12,7C320.33,90.13,318.53,90.23,317.61,90.35Zm-8.11-18.72a6.61,6.61,0,0,0,3.6,5.68,7.31,7.31,0,0,0,7.67-.2c2.59-1.59,3.38-4.11,3.27-7a7.25,7.25,0,0,0-8.87-6.8C311.68,64.1,309.49,67,309.49,71.63Z" transform="translate(-180.14 -50.48)"/><path class="cls-2" d="M212,70.5c-0.12-9.89,6.55-17.5,16.24-19.45a23.07,23.07,0,0,1,17.21,2.81,18.4,18.4,0,0,1,9,14.81A19,19,0,0,1,239,89.7a24.44,24.44,0,0,1-16.59-1.84,17.94,17.94,0,0,1-10.24-14.59c0-.31-0.12-0.61-0.13-0.91C212,71.74,212,71.12,212,70.5Zm14,0.22c0,2.9,1.05,5.29,3.71,6.66a7.21,7.21,0,0,0,7.73-.4c2.66-1.82,3.41-4.51,3-7.6a7.1,7.1,0,0,0-8.89-6C228.16,64.18,226.08,67,226.07,70.73Z" transform="translate(-180.14 -50.48)"/><path class="cls-2" d="M412.53,70.54c-0.06,9.91-6.37,17.44-16.19,19.27a25.06,25.06,0,0,1-14.57-1.27c-6.69-2.81-10.76-7.78-11.69-15.07-0.88-6.84.91-12.83,6.12-17.55a20.88,20.88,0,0,1,11.29-5.11A23.39,23.39,0,0,1,401,52.62c6.34,2.94,10.19,7.85,11.23,14.84C412.41,68.48,412.44,69.51,412.53,70.54Zm-21.37,7.71c4.27-.11,7.3-2.87,7.3-7.5,0-4.47-2.92-7.57-7.3-7.61-4.16,0-7.26,3.22-7.28,7.57A7.15,7.15,0,0,0,391.16,78.26Z" transform="translate(-180.14 -50.48)"/><path class="cls-2" d="M206.73,63.44c-1.91-.8-3.66-1.67-5.51-2.24a10.84,10.84,0,0,0-3.64-.28,2,2,0,0,0-2.11,1.88c0,1,.54,1.52,1.91,1.84,1.71,0.4,3.43.76,5.14,1.19a14.16,14.16,0,0,1,5.69,2.76,9.42,9.42,0,0,1,3.41,6.86c0.58,8.23-5,12.62-11.08,14.18-5.29,1.36-10.49.65-15.61-.91-1.59-.49-3.13-1.16-4.8-1.79L184.43,76l0.78,0.57a15.84,15.84,0,0,0,7.8,3.45,5.69,5.69,0,0,0,3.41-.6,1.89,1.89,0,0,0,1.12-1.91,1.8,1.8,0,0,0-1.48-1.64c-1.49-.35-3-0.61-4.51-0.9a14.32,14.32,0,0,1-6.83-3,9.16,9.16,0,0,1-3.17-8.11c0.45-6.1,3.94-9.92,9.41-12,6.51-2.47,12.85-1.61,18.9,1.69a0.83,0.83,0,0,1,.38.67C209.08,57.37,207.88,60.46,206.73,63.44Z" transform="translate(-180.14 -50.48)"/><path class="cls-2" d="M368.92,66.4c-1.46-.92-2.76-1.89-4.19-2.61a7.93,7.93,0,0,0-9.86,1.77,7,7,0,0,0-1.27,7.61,7.48,7.48,0,0,0,6.23,4.75,10.35,10.35,0,0,0,8.34-2.73l0.67-.57c0,1.56,0,3,0,4.43-0.08,3-.21,6-0.29,9a0.89,0.89,0,0,1-.67,1.06c-6,1.48-12,2.12-17.79-.64a18.4,18.4,0,0,1-10.73-14.1,19.68,19.68,0,0,1,5.26-17.63,19.21,19.21,0,0,1,12.39-6,27.94,27.94,0,0,1,10.83,1.21,0.73,0.73,0,0,1,.71.74C368.64,57.21,368.78,61.8,368.92,66.4Z" transform="translate(-180.14 -50.48)"/></svg>